<svg width="25" height="24" viewBox="0 0 25 24" fill="none" xmlns="http://www.w3.org/2000/svg">
<path d="M20.0367 4.75346C19.9929 4.68729 19.9315 4.63446 19.8594 4.60131C18.5585 4.00336 17.1765 3.55681 15.7357 3.28161C15.5534 3.2468 15.3699 3.33468 15.285 3.49975C15.1827 3.69887 15.0784 3.91516 14.985 4.12149C14.9026 4.30356 14.7107 4.41176 14.5125 4.38588C13.0489 4.19475 11.5969 4.19446 10.1566 4.385C9.95806 4.41127 9.7655 4.30305 9.68212 4.12092C9.58744 3.91411 9.48109 3.69732 9.37709 3.49787C9.29157 3.33386 9.10865 3.24666 8.92696 3.28133C7.48428 3.55664 6.1006 4.00473 4.79943 4.60429C4.72675 4.63778 4.66467 4.69169 4.62086 4.75864C1.84758 8.99647 1.06467 13.1318 1.40958 17.2091C1.41997 17.3319 1.48305 17.4443 1.58249 17.5171C3.32875 18.7956 5.02606 19.6092 6.69582 20.1591C6.87323 20.2176 7.06779 20.1532 7.17419 19.9996C7.45915 19.5885 7.72289 19.1609 7.96346 18.7177C8.08639 18.4913 7.97632 18.2122 7.7395 18.1107C7.37093 17.9527 7.01198 17.7763 6.66396 17.583C6.49275 17.4879 6.48122 17.2484 6.63327 17.1249C6.71652 17.0574 6.83077 17.0426 6.92846 17.0868C10.4499 18.6814 14.257 18.6817 17.7379 17.0878C17.8357 17.043 17.9512 17.0577 18.0349 17.1254C18.1874 17.2486 18.1747 17.4876 18.0033 17.5829C17.6539 17.7772 17.2936 17.9541 16.924 18.1123C16.687 18.2138 16.577 18.4932 16.7 18.7198C16.9403 19.1626 17.2034 19.5909 17.489 20.0022C17.5953 20.1553 17.7895 20.2195 17.9666 20.1612C19.6384 19.6112 21.3377 18.7974 23.0845 17.5169C23.1837 17.4442 23.2467 17.3316 23.2572 17.209C23.6597 12.4968 22.4488 8.39719 20.0367 4.75346ZM8.67872 14.8358C7.59206 14.8358 6.7009 13.8213 6.7009 12.5859C6.7009 11.3506 7.57303 10.3344 8.67872 10.3344C9.78445 10.3344 10.6756 11.3488 10.6565 12.5859C10.6583 13.8213 9.78445 14.8358 8.67872 14.8358ZM15.9878 14.8358C14.9012 14.8358 14.01 13.8213 14.01 12.5859C14.01 11.3506 14.8821 10.3344 15.9878 10.3344C17.0935 10.3344 17.9847 11.3488 17.9656 12.5859C17.9656 13.8213 17.0935 14.8358 15.9878 14.8358Z" fill="white"/>
</svg>
