<svg width="25" height="24" viewBox="0 0 25 24" fill="none" xmlns="http://www.w3.org/2000/svg">
<path d="M22.85 5.07055C22.0587 5.42117 21.2087 5.65808 20.3151 5.76516C21.2267 5.21933 21.9261 4.3532 22.2558 3.32219C21.403 3.82822 20.4582 4.1959 19.4528 4.393C18.6473 3.53635 17.5007 3 16.2309 3C13.7936 3 11.8168 4.97674 11.8168 7.41592C11.8168 7.76085 11.8566 8.09631 11.9306 8.42039C8.26042 8.23561 5.00914 6.47777 2.8315 3.80737C2.45245 4.46123 2.2345 5.21933 2.2345 6.0267C2.2345 7.55806 3.01439 8.91032 4.19797 9.70158C3.47399 9.67789 2.7936 9.47984 2.19849 9.14912V9.20597C2.19849 11.3448 3.71942 13.1291 5.73975 13.5347C5.36828 13.6352 4.97881 13.6882 4.57702 13.6882C4.29273 13.6882 4.01508 13.6617 3.74596 13.6105C4.3079 15.3636 5.93781 16.641 7.87001 16.6751C6.35855 17.8597 4.45478 18.5656 2.38707 18.5656C2.03076 18.5656 1.67919 18.5448 1.33331 18.504C3.28731 19.7577 5.60709 20.4874 8.09933 20.4874C16.2204 20.4874 20.6601 13.7612 20.6601 7.92763C20.6601 7.73811 20.6553 7.54669 20.6468 7.35716C21.5091 6.73363 22.2577 5.95753 22.8481 5.0734L22.85 5.07055Z" fill="white"/>
</svg>
